<svg width="347" height="161" viewBox="0 0 347 161" fill="none" xmlns="http://www.w3.org/2000/svg">
<path fill-rule="evenodd" clip-rule="evenodd" d="M10 0C4.47715 0 0 4.47715 0 10V74.6534C0.0701516 74.6947 0.137471 74.7459 0.200473 74.8077L5.27286 79.7863C5.67223 80.1782 5.67223 80.8216 5.27286 81.2136L0.200471 86.1921C0.137469 86.254 0.0701508 86.3052 0 86.3465V151C0 156.523 4.47715 161 10 161H337C342.523 161 347 156.509 347 150.986V86.3465C346.93 86.3052 346.863 86.254 346.8 86.1921L341.727 81.2136C341.328 80.8216 341.328 80.1782 341.727 79.7863L346.8 74.8077C346.863 74.7459 346.93 74.6947 347 74.6534V10.0141C347 4.49122 342.523 0 337 0H10Z" fill="white"/>
<mask id="path-2-inside-1" fill="white">
<path fill-rule="evenodd" clip-rule="evenodd" d="M0 10C0 4.47716 4.47715 0 10 0H337C342.523 0 347 4.49108 347 10.0139V75.3504C346.938 75.3867 346.879 75.4307 346.822 75.4828L341.797 80.116C341.368 80.5121 341.368 81.1904 341.797 81.5864L346.822 86.2196C346.879 86.2717 346.938 86.3157 347 86.352V150.69C347 156.213 342.523 160.704 337 160.704H9.99999C4.47715 160.704 0 156.227 0 150.704V86.352C0.061723 86.3157 0.121344 86.2717 0.177878 86.2196L5.20269 81.5864C5.63218 81.1904 5.63218 80.5121 5.20269 80.116L0.177878 75.4828C0.121344 75.4307 0.061723 75.3867 0 75.3504V10Z"/>
</mask>
<path d="M347 75.3504L347.507 76.2126L348 75.9226V75.3504H347ZM346.822 75.4828L346.144 74.7476L346.144 74.7477L346.822 75.4828ZM341.797 80.116L341.119 79.3809L341.119 79.3809L341.797 80.116ZM341.797 81.5864L341.119 82.3215L341.119 82.3216L341.797 81.5864ZM346.822 86.2196L346.144 86.9547L346.144 86.9548L346.822 86.2196ZM347 86.352H348V85.7798L347.507 85.4899L347 86.352ZM0 86.352L-0.506789 85.4899L-1 85.7799V86.352H0ZM0.177878 86.2196L-0.5 85.4844L-0.500025 85.4844L0.177878 86.2196ZM5.20269 81.5864L4.52481 80.8512L4.52481 80.8512L5.20269 81.5864ZM5.20269 80.116L4.52481 80.8512L4.52481 80.8512L5.20269 80.116ZM0.177878 75.4828L-0.500025 76.218L-0.5 76.218L0.177878 75.4828ZM0 75.3504H-1V75.9226L-0.506789 76.2125L0 75.3504ZM10 -1C3.92487 -1 -1 3.92488 -1 10H1C1 5.02945 5.02944 1 10 1V-1ZM337 -1H10V1H337V-1ZM348 10.0139C348 3.94061 343.077 -1 337 -1V1C341.969 1 346 5.04155 346 10.0139H348ZM348 75.3504V10.0139H346V75.3504H348ZM347.5 76.2181C347.505 76.2135 347.507 76.2122 347.507 76.2126L346.493 74.4883C346.369 74.5612 346.252 74.6479 346.144 74.7476L347.5 76.2181ZM342.475 80.8512L347.5 76.218L346.144 74.7477L341.119 79.3809L342.475 80.8512ZM342.475 80.8512V80.8512L341.119 79.3809C340.26 80.1729 340.26 81.5295 341.119 82.3215L342.475 80.8512ZM347.5 85.4844L342.475 80.8512L341.119 82.3216L346.144 86.9547L347.5 85.4844ZM347.507 85.4899C347.507 85.4902 347.505 85.4889 347.5 85.4843L346.144 86.9548C346.252 87.0545 346.369 87.1412 346.493 87.2141L347.507 85.4899ZM348 150.69V86.352H346V150.69H348ZM337 161.704C343.077 161.704 348 156.764 348 150.69H346C346 155.663 341.969 159.704 337 159.704V161.704ZM9.99999 161.704H337V159.704H9.99999V161.704ZM-1 150.704C-1 156.779 3.92486 161.704 9.99999 161.704V159.704C5.02943 159.704 1 155.675 1 150.704H-1ZM-1 86.352V150.704H1V86.352H-1ZM-0.500025 85.4844C-0.50481 85.4888 -0.507168 85.4901 -0.506789 85.4899L0.506789 87.214C0.630614 87.1413 0.747498 87.0546 0.855781 86.9547L-0.500025 85.4844ZM4.52481 80.8512L-0.5 85.4844L0.855756 86.9547L5.88057 82.3216L4.52481 80.8512ZM4.52481 80.8512L4.52481 80.8512L5.88056 82.3216C6.73956 81.5295 6.73956 80.1729 5.88056 79.3809L4.52481 80.8512ZM-0.5 76.218L4.52481 80.8512L5.88056 79.3809L0.855756 74.7477L-0.5 76.218ZM-0.506789 76.2125C-0.507168 76.2123 -0.50481 76.2136 -0.500025 76.218L0.855781 74.7477C0.747498 74.6478 0.630614 74.5612 0.506789 74.4884L-0.506789 76.2125ZM-1 10V75.3504H1V10H-1Z" fill="#DF212D" mask="url(#path-2-inside-1)"/>
</svg>
